<?xml version="1.0" encoding="UTF-8"?>
<!-- Dreamland pattern: 56 child-friendly vector icons (clouds, stars, moons, balloons, kites) -->
<svg xmlns="http://www.w3.org/2000/svg" width="1200" height="800" viewBox="0 0 1200 800" preserveAspectRatio="xMidYMid slice">
  <defs>
    <!-- simple cloud -->
    <g id="cloud">
      <path d="M20 60 c-12 -20 -40 -20 -52 0 -18 30 12 50 52 50 40 0 70 -20 52 -50 -12 -20 -40 -20 -52 0z"/>
    </g>
    <!-- star -->
    <g id="star">
      <polygon points="10,0 12.6,7.1 20,7.6 14,12.2 15.6,19.9 10,15.5 4.4,19.9 6,12.2 0,7.6 7.4,7.1" />
    </g>
    <!-- balloon -->
    <g id="balloon">
      <ellipse cx="12" cy="10" rx="10" ry="12" />
      <path d="M12 22 q0 8 0 12" stroke-width="1" stroke-linecap="round" stroke="#333" fill="none" />
    </g>
    <!-- moon -->
    <g id="moon">
      <path d="M16 2 a14 14 0 1 0 0 28 a10 10 0 1 1 0 -28" />
    </g>
    <!-- kite -->
    <g id="kite">
      <polygon points="10,0 20,14 10,28 0,14" />
      <path d="M10 28 q6 6 12 12" stroke="#333" stroke-width="0.8" fill="none" />
    </g>
  </defs>

  <!-- background transparent; place 56 icons with varied transforms and subtle SMIL motion -->
  <!-- We'll place items in a grid-like but varied positions to give a playful pattern -->
  <g fill="#fff" fill-opacity="0.92" stroke="#f5f7fb" stroke-opacity="0.12">
    <!-- Row 1 -->
    <use href="#cloud" transform="translate(40,40) scale(1.8)" fill="#ffffff" fill-opacity="0.95" />
    <use href="#star" transform="translate(220,30) scale(1.4)" fill="#ffe1ff" fill-opacity="0.95">
      <animate attributeName="transform" dur="8s" repeatCount="indefinite" values="translate(220,30) scale(1.4); translate(224,26) scale(1.38); translate(220,30) scale(1.4)"/>
    </use>
    <use href="#balloon" transform="translate(360,20) scale(1.6)" fill="#ffd6c2" />
    <use href="#moon" transform="translate(480,20) scale(1.1)" fill="#fff3b0" />
    <use href="#kite" transform="translate(620,30) scale(1.2)" fill="#cde7ff" />
    <use href="#star" transform="translate(760,40) scale(1.1)" fill="#dfefff" />
    <use href="#cloud" transform="translate(900,20) scale(1.6)" fill="#ffffff" />

    <!-- Row 2 -->
    <use href="#star" transform="translate(80,120) scale(1.0)" fill="#ffd6f0">
      <animate attributeName="transform" dur="10s" repeatCount="indefinite" values="translate(80,120) scale(1); translate(80,116) scale(0.98); translate(80,120) scale(1)"/>
    </use>
    <use href="#balloon" transform="translate(200,110) scale(1.4)" fill="#c7f6d9" />
    <use href="#cloud" transform="translate(340,100) scale(1.4)" fill="#fff" />
    <use href="#kite" transform="translate(480,112) scale(1.0)" fill="#ffdede" />
    <use href="#star" transform="translate(620,120) scale(0.9)" fill="#fef7c7" />
    <use href="#moon" transform="translate(760,110) scale(0.9)" fill="#fff3b0" />
    <use href="#star" transform="translate(940,130) scale(1.2)" fill="#e6f2ff" />

    <!-- Row 3 -->
    <use href="#cloud" transform="translate(20,240) scale(1.2)" fill="#ffffff" />
    <use href="#balloon" transform="translate(140,220) scale(1.1)" fill="#ffd6c2" />
    <use href="#star" transform="translate(260,230) scale(0.8)" fill="#fff0f7" />
    <use href="#moon" transform="translate(380,240) scale(1.0)" fill="#fff3b0" />
    <use href="#kite" transform="translate(520,220) scale(0.95)" fill="#e0f7ff" />
    <use href="#cloud" transform="translate(660,230) scale(1.4)" fill="#fff" />
    <use href="#star" transform="translate(820,240) scale(1.0)" fill="#f9e6ff" />
    <use href="#balloon" transform="translate(980,210) scale(1.3)" fill="#d6f0ff" />

    <!-- Row 4 -->
    <use href="#star" transform="translate(60,360) scale(1.0)" fill="#ffe6f0" />
    <use href="#cloud" transform="translate(190,340) scale(1.6)" fill="#fff" />
    <use href="#moon" transform="translate(340,360) scale(0.9)" fill="#fff3b0" />
    <use href="#kite" transform="translate(460,350) scale(1.1)" fill="#ffdede" />
    <use href="#balloon" transform="translate(610,340) scale(1.2)" fill="#c7f6d9" />
    <use href="#star" transform="translate(760,360) scale(0.9)" fill="#e6f2ff" />
    <use href="#cloud" transform="translate(900,330) scale(1.2)" fill="#fff" />

    <!-- Row 5 -->
    <use href="#balloon" transform="translate(40,480) scale(1.4)" fill="#ffd6c2" />
    <use href="#star" transform="translate(200,460) scale(1.1)" fill="#fff0f7" />
    <use href="#cloud" transform="translate(320,470) scale(1.0)" fill="#fff" />
    <use href="#moon" transform="translate(460,480) scale(1.1)" fill="#fff3b0" />
    <use href="#kite" transform="translate(600,460) scale(1.3)" fill="#cde7ff" />
    <use href="#star" transform="translate(760,470) scale(1.0)" fill="#f9e6ff" />
    <use href="#balloon" transform="translate(920,480) scale(1.0)" fill="#d6f0ff" />

    <!-- Row 6 -->
    <use href="#cloud" transform="translate(120,620) scale(1.8)" fill="#fff" />
    <use href="#star" transform="translate(300,600) scale(1.2)" fill="#ffe6f0" />
    <use href="#kite" transform="translate(460,620) scale(1.0)" fill="#ffdede" />
    <use href="#balloon" transform="translate(620,610) scale(1.2)" fill="#c7f6d9" />
    <use href="#star" transform="translate(840,620) scale(1.1)" fill="#e6f2ff" />
    <use href="#moon" transform="translate(1000,600) scale(1.2)" fill="#fff3b0" />
  </g>

</svg>
